<svg xmlns="http://www.w3.org/2000/svg" width="20" height="20" viewBox="0 0 20 20">
    <path fill="#8B98BA" fill-rule="evenodd" d="M1.25 3.75v10.469c0 .086.07.156.156.156H2.5c.086 0 .156-.07.156-.156V4.53h13.438c.086 0 .156-.07.156-.156V3.281c0-.086-.07-.156-.156-.156H1.875c-.346 0-.625.28-.625.625zm2.5 2.5v10c0 .346.28.625.625.625H14.74c.166 0 .324-.066.442-.184l3.384-3.384c.043-.043.079-.092.108-.145h.037v-.082c.025-.068.039-.14.039-.215V6.25c0-.346-.28-.625-.625-.625H4.375c-.346 0-.625.28-.625.625zm12.973 6.914l-1.684 1.682v-1.682h1.684zm.62-6.133v4.883H14.57c-.431 0-.78.35-.78.781v2.774H5.155V7.03h12.188z"/>
</svg>
