<svg xmlns="http://www.w3.org/2000/svg" width="31" height="31" viewBox="0 0 31 31">
    <g fill="none" fill-rule="evenodd">
        <path d="M0 0L31 0 31 31 0 31z"/>
        <path fill="#4E566D" d="M23.427 6.678c1.941 1.979 1.972 5.172.07 7.189l-.005.005-1.528 1.558-6.876 7.008c-1.415 1.432-3.706 1.428-5.117-.01-1.402-1.43-1.406-3.74-.008-5.176l6.874-7.01c.43-.437 1.133-.437 1.562 0 .422.43.422 1.122 0 1.552l-6.874 7.01c-.563.573-.563 1.508 0 2.081.555.566 1.448.566 2.002 0l6.877-7.007 1.528-1.557c1.125-1.147 1.124-3.013-.001-4.16-1.118-1.139-2.924-1.138-4.041.001L16.617 9.46l-7.13 7.267-.505.515C7.34 18.97 7.36 21.728 9.03 23.43c1.662 1.693 4.343 1.715 6.026.051l7.639-7.786c.277-.283.686-.394 1.068-.29.38.104.673.403.773.783.1.377-.007.78-.28 1.058l-7.639 7.787c-2.54 2.578-6.655 2.573-9.19-.01-2.526-2.576-2.531-6.746-.01-9.328l7.64-7.787 1.28-1.303c1.987-1.946 5.143-1.913 7.091.073z"/>
    </g>
</svg>
