<svg xmlns="http://www.w3.org/2000/svg" width="90" height="70" viewBox="0 0 90 70">
    <g fill="none" fill-rule="evenodd">
        <path fill="#FFF" fill-opacity=".2" d="M0 0H90V1H0z" transform="translate(0 69)"/>
        <path fill="#2793FF" d="M0 0H90V70H0z"/>
        <g>
            <g>
                <path fill="#86C2FF" d="M23.79 2.143c-.01-.357-.103-.693-.263-.987-.35-.649-1.017-1.101-1.792-1.15C21.687.001 21.639 0 21.59 0c0 0-.233 0-.41.042-.21.05-.474.136-.474.136L10.063 4.052 3.627 6.394l-.005.002c-.066.02-.13.044-.194.07l-.003.002c-.769.325-1.315 1.075-1.343 1.956v.537l.045-.016 4.093-1.49 3.843-1.399 8.442-3.073.106-.038.09-.033h.003l.003-.002h.002l.152-.056.004-.001.028-.008.24-.086c.191-.06.395-.093.606-.093h.046c1.072.025 1.935.893 1.953 1.967l.001.001v.035l-.004.926V16.883l.616-.225c.84-.31 1.439-1.117 1.439-2.064V2.256 2.2v-.056" transform="translate(12 11) translate(20.958)"/>
                <path fill="#FFF" d="M21.74 4.663v-.029l-.002-.001c-.018-1.074-.88-1.943-1.953-1.967h-.046c-.211 0-.415.033-.606.094l-.24.085-.028.008-.004.001-.152.056h-.002l-.003.001-.003.001-.09.033-.106.038-8.442 3.073-3.843 1.4-4.093 1.489-.045.016-.53.193-.005.002c-.071.021-.14.047-.208.075C.57 9.56.024 10.315.001 11.2v14.313L0 25.598l.001.085c.01.384.085.752.216 1.092.262.687.746 1.263 1.366 1.64l.144.084.013.007c-.074-.221-.115-.458-.115-.704 0-.506.17-.972.457-1.343.237-.307.553-.55.919-.697l.004-.002c.038-.015.076-.03.114-.042l.01-.003 3.29-1.197 3.644-1.327 10.126-3.686.014-.005c.062-.019.123-.04.182-.065l.006-.003c.79-.334 1.344-1.116 1.344-2.028V5.595l.004-.926v-.003-.003" transform="translate(12 11) translate(20.958)"/>
                <path fill="#86C2FF" d="M4.332 10.712h-.05c-1.215 0-2.2.984-2.2 2.199 0 .188.024.37.068.545.243.951 1.105 1.654 2.132 1.654 1.214 0 2.2-.984 2.2-2.2 0-1.197-.958-2.171-2.15-2.198M6.418 24.518l-3.29 1.197-.009.003-.113.042h-.001L3 25.762c-.366.147-.682.39-.919.697-.286.371-.457.837-.457 1.343 0 .246.04.483.115.704h.001l.341.197 2.174 1.256 4.147 2.392.048.026.077.037.01.004c.029.012.058.023.089.033l.022.006c.029.01.058.017.088.023l.006.002c.032.006.064.01.096.014l.024.003c.033.003.067.005.1.005.608 0 1.1-.492 1.1-1.1v-8.213l-3.645 1.327z" transform="translate(12 11) translate(20.958)"/>
            </g>
            <path fill="#FFF" fill-rule="nonzero" d="M1.985 47.279v-2.704h1.29c1.696 0 3.011-1.315 3.011-2.95 0-1.634-1.315-2.948-3.01-2.948H.018v8.602h1.966zm1.29-4.547h-1.29V40.52h1.29c.602 0 1.045.48 1.045 1.106 0 .627-.443 1.106-1.045 1.106zm9.401 4.547v-1.893h-3.44v-1.523h3.072v-1.868H9.235v-1.426h3.38v-1.892H7.269v8.602h5.407zm5.383.172c2.409 0 4.24-1.598 4.24-4.227v-.738h-4.314v1.72h2.298c-.307.824-1.056 1.328-2.2 1.328-1.67 0-2.703-1.07-2.703-2.532 0-1.511 1.081-2.58 2.532-2.58.97 0 1.745.442 2.101 1.007l1.671-.958c-.725-1.155-2.113-1.966-3.76-1.966-2.532 0-4.51 1.99-4.51 4.485 0 2.47 1.941 4.461 4.645 4.461z" transform="translate(12 11)"/>
            <path fill="#FFF" fill-rule="nonzero" stroke="#FFF" stroke-width=".3" d="M30.79 47.414c1.61 0 3.011-.836 3.712-2.101l-.578-.332c-.565 1.081-1.77 1.806-3.133 1.806-2.262 0-3.822-1.696-3.822-3.81 0-2.113 1.56-3.809 3.822-3.809 1.351 0 2.543.713 3.109 1.77l.577-.332c-.712-1.254-2.101-2.065-3.686-2.065-2.618 0-4.474 1.979-4.474 4.437s1.856 4.436 4.474 4.436zm7.94 0c1.781 0 3.22-1.389 3.22-3.207 0-1.82-1.439-3.208-3.22-3.208-1.795 0-3.233 1.389-3.233 3.208 0 1.818 1.438 3.207 3.232 3.207zm0-.59c-1.463 0-2.606-1.155-2.606-2.617 0-1.463 1.143-2.618 2.605-2.618 1.463 0 2.593 1.155 2.593 2.618 0 1.462-1.13 2.617-2.593 2.617zm5.133.455v-3.244c0-1.66.946-2.446 2.15-2.446 1.155 0 1.807.737 1.807 1.868v3.822h.627v-3.822c0-1.487-.922-2.458-2.385-2.458-.946 0-1.732.393-2.2 1.303v-1.168h-.614v6.145h.615zm9.287 0v-.553c-1.254.11-1.831.086-1.831-.996v-3.993h1.83v-.603h-1.83v-1.72l-.627.184v1.536H49.34v.603h1.352v3.993c0 1.401.848 1.795 2.458 1.549zm3.695.135c1.18 0 2.126-.602 2.642-1.524v1.389h.627v-6.145h-.627v1.389c-.516-.922-1.462-1.524-2.642-1.524-1.745 0-3.183 1.389-3.183 3.208 0 1.818 1.438 3.207 3.183 3.207zm.05-.59c-1.463 0-2.606-1.155-2.606-2.617 0-1.463 1.143-2.618 2.605-2.618 1.463 0 2.593 1.155 2.593 2.618 0 1.462-1.13 2.617-2.593 2.617zm6.878.59c1.315 0 2.2-.737 2.2-1.745 0-2.249-3.724-1.278-3.724-2.925 0-.737.676-1.155 1.475-1.155.676 0 1.315.295 1.573.934l.516-.295c-.332-.75-1.094-1.229-2.09-1.229-1.253 0-2.089.774-2.089 1.745 0 2.212 3.724 1.254 3.724 2.925 0 .774-.725 1.155-1.585 1.155-.922 0-1.586-.418-1.807-1.081l-.528.307c.295.787 1.106 1.364 2.335 1.364z" transform="translate(12 11)"/>
        </g>
    </g>
</svg>
