<svg xmlns="http://www.w3.org/2000/svg" width="20" height="20" viewBox="0 0 20 20">
    <path fill="#8B98BA" fill-rule="evenodd" d="M18.062 7.531c-.44-1.043-1.072-1.978-1.875-2.781-.802-.803-1.738-1.434-2.78-1.875-1.08-.457-2.225-.687-3.407-.687s-2.326.23-3.406.687C5.55 3.316 4.615 3.947 3.812 4.75c-.802.803-1.433 1.738-1.875 2.781-.457 1.08-.687 2.225-.687 3.407 0 2.591 1.139 5.033 3.123 6.7l.033.028c.114.094.256.147.403.147h10.384c.147 0 .29-.053.403-.147l.033-.027c1.982-1.668 3.121-4.11 3.121-6.701 0-1.182-.232-2.327-.688-3.407zm-3.19 8.797H5.128C3.604 14.951 2.734 13 2.734 10.938c0-1.942.756-3.766 2.13-5.137C6.235 4.428 8.06 3.67 10 3.67c1.941 0 3.766.757 5.137 2.13 1.373 1.373 2.129 3.197 2.129 5.137 0 2.062-.87 4.013-2.395 5.39zm-2.694-8.096c-.06-.06-.16-.06-.221 0l-1.65 1.65c-.366-.097-.77-.003-1.057.284-.428.428-.428 1.12 0 1.547.428.428 1.12.428 1.547 0 .287-.287.38-.692.283-1.057l1.65-1.65c.061-.06.061-.16 0-.22l-.552-.554zM9.57 6.25h.86c.086 0 .156-.07.156-.156V4.53c0-.086-.07-.156-.156-.156h-.86c-.086 0-.156.07-.156.156v1.563c0 .086.07.156.156.156zm5.078 4.258v.86c0 .085.07.155.157.155h1.562c.086 0 .156-.07.156-.156v-.86c0-.085-.07-.155-.156-.155h-1.562c-.086 0-.157.07-.157.156zm.248-3.852l-.607-.607c-.06-.06-.16-.06-.22 0l-1.106 1.105c-.06.06-.06.16 0 .221l.607.607c.06.061.16.061.221 0l1.105-1.105c.061-.06.061-.16 0-.22zM5.94 6.05c-.06-.06-.16-.06-.22 0l-.608.607c-.06.06-.06.16 0 .221l1.106 1.105c.06.061.16.061.22 0l.608-.607c.06-.06.06-.16 0-.22L5.939 6.048zm-.822 4.303H3.555c-.086 0-.157.07-.157.156v.86c0 .085.07.155.157.155h1.562c.086 0 .156-.07.156-.156v-.86c0-.085-.07-.155-.156-.155z"/>
</svg>
