<svg xmlns="http://www.w3.org/2000/svg" width="30" height="30" viewBox="0 0 30 30">
    <g fill="none" fill-rule="evenodd">
        <path fill="#4E566D" d="M23.428 2.5c.868 0 1.572.698 1.572 1.557v21.886c0 .86-.704 1.557-1.572 1.557H6.572C5.704 27.5 5 26.802 5 25.943V9.633h.547c.044.003.092.006.137.006H9.99c1.222 0 2.215-.983 2.215-2.193V3.18c0-.056-.003-.112-.01-.165V2.5zM15.32 20.735h-5.5c-.41 0-.742.33-.742.736 0 .406.333.736.743.736h5.496c.41 0 .746-.33.746-.736 0-.406-.333-.736-.743-.736zm5.495-3.757H9.821c-.41 0-.743.33-.743.736 0 .407.333.736.743.736h10.994c.41 0 .743-.33.743-.736 0-.406-.333-.736-.743-.736zm0-3.989H9.821c-.41 0-.743.33-.743.736 0 .407.333.736.743.736h10.994c.41 0 .743-.33.743-.736 0-.406-.333-.736-.743-.736zM10.645 2.524c.338 0 .665.262.665.656v4.28c-.006.713-.588 1.29-1.308 1.296H5.684c-.592 0-.886-.707-.47-1.119l4.967-4.92c.136-.135.3-.193.463-.193z"/>
        <circle cx="23.75" cy="6.25" r="6.25" fill="#FE5959"/>
    </g>
</svg>
