<svg xmlns="http://www.w3.org/2000/svg" width="20" height="20" viewBox="0 0 20 20">
    <g fill="none" fill-rule="evenodd">
        <path d="M0 0L20 0 20 20 0 20z"/>
        <path fill="#8B98BA" d="M2.5 18.254c0-3.49 3.439-6.319 7.917-6.319 4.477 0 7.916 2.83 7.916 6.319h-1.602c0-2.617-3.31-4.74-6.314-4.74-3.005 0-6.315 2.123-6.315 4.74H2.5zm7.917-7.109c-2.656 0-4.807-2.12-4.807-4.74 0-2.618 2.151-4.738 4.807-4.738 2.655 0 4.806 2.12 4.806 4.739 0 2.618-2.15 4.74-4.806 4.74zm0-1.58c1.77 0 3.204-1.413 3.204-3.16 0-1.745-1.434-3.159-3.204-3.159-1.77 0-3.205 1.414-3.205 3.16 0 1.746 1.434 3.16 3.205 3.16z"/>
    </g>
</svg>
